<svg width="54" height="54" viewBox="0 0 54 54" fill="none" xmlns="http://www.w3.org/2000/svg">
<path fill-rule="evenodd" clip-rule="evenodd" d="M47.2726 22.8854L47.2784 31.0369C47.2211 31.8134 47.1471 32.5891 47.0565 33.3633C46.9051 34.658 45.8527 35.7023 44.531 35.85C40.3916 36.3126 36.108 36.3126 31.9685 35.85C30.6469 35.7023 29.5945 34.658 29.443 33.3633C28.9486 29.1355 28.9486 24.8645 29.443 20.6368C29.5945 19.3421 30.6469 18.2978 31.9685 18.1501C36.108 17.6874 40.3916 17.6874 44.531 18.1501C45.8527 18.2978 46.9051 19.3421 47.0565 20.6368C47.1441 21.3851 47.2161 22.1348 47.2726 22.8854ZM38.2498 23.625C36.3858 23.625 34.8748 25.1361 34.8748 27C34.8748 28.864 36.3858 30.375 38.2498 30.375C40.1137 30.375 41.6248 28.864 41.6248 27C41.6248 25.1361 40.1137 23.625 38.2498 23.625Z" fill="white"/>
<path d="M45.9079 13.5894C46.2577 14.1952 45.6012 14.8736 44.9059 14.7959C40.5173 14.3054 35.9823 14.3054 31.5937 14.7959C28.7376 15.1151 26.4278 17.3641 26.0909 20.2447C25.5659 24.733 25.5659 29.2671 26.0909 33.7554C26.4278 36.6359 28.7376 38.8849 31.5937 39.2041C35.9823 39.6946 40.5173 39.6946 44.9059 39.2041C45.6058 39.1259 46.2677 39.809 45.9145 40.4182C44.1627 43.4396 41.0394 45.5483 37.4101 45.9302L35.9434 46.0845C28.494 46.8685 20.9803 46.8168 13.5423 45.9304L12.5705 45.8146C8.56068 45.3368 5.38356 42.204 4.84948 38.2013C3.85747 30.7667 3.85747 23.2333 4.84948 15.7987C5.38356 11.7961 8.56067 8.66327 12.5705 8.18545L13.5423 8.06964C20.9803 7.18331 28.494 7.13161 35.9434 7.91552L37.4101 8.06986C41.0425 8.4521 44.1608 10.564 45.9079 13.5894Z" fill="white"/>
</svg>
